<svg width="40" height="33" viewBox="0 0 40 33" fill="none" xmlns="http://www.w3.org/2000/svg">
<path d="M16.6859 3.09375V5.16365C13.7911 6.71187 11.7188 8.32741 10.4688 10.0103C9.21875 11.6931 8.59375 13.5274 8.59375 15.5132C8.59375 16.6912 8.75822 17.4989 9.08717 17.9365C9.38322 18.4077 9.74507 18.6433 10.1727 18.6433C10.6003 18.6433 11.176 18.5255 11.8997 18.2899C12.6234 18.0206 13.2812 17.886 13.8734 17.886C15.222 17.886 16.3898 18.4077 17.3766 19.451C18.3964 20.4607 18.9063 21.706 18.9063 23.187C18.9063 24.8025 18.2977 26.1993 17.0806 27.3772C15.8635 28.5216 14.3503 29.0938 12.5411 29.0938C10.3372 29.0938 8.34704 28.1177 6.57072 26.1656C4.79441 24.2135 3.90625 21.807 3.90625 18.9462C3.90625 15.5805 4.99178 12.4504 7.16283 9.55589C9.36678 6.62773 12.5411 4.47369 16.6859 3.09375Z" fill="#262626"/>
<path d="M33.6859 3.09375V5.16365C30.7911 6.71187 28.7188 8.32741 27.4688 10.0103C26.2188 11.6931 25.5938 13.5274 25.5938 15.5132C25.5938 16.6912 25.7582 17.4989 26.0872 17.9365C26.3832 18.4077 26.7451 18.6433 27.1727 18.6433C27.6003 18.6433 28.176 18.5255 28.8997 18.2899C29.6234 18.0206 30.2812 17.886 30.8734 17.886C32.222 17.886 33.3898 18.4077 34.3766 19.451C35.3964 20.4607 35.9063 21.706 35.9063 23.187C35.9063 24.8025 35.2977 26.1993 34.0806 27.3772C32.8635 28.5216 31.3503 29.0938 29.5411 29.0938C27.3372 29.0938 25.347 28.1177 23.5707 26.1656C21.7944 24.2135 20.9062 21.807 20.9062 18.9462C20.9062 15.5805 21.9918 12.4504 24.1628 9.55589C26.3668 6.62773 29.5411 4.47369 33.6859 3.09375Z" fill="#262626"/>
</svg>
